<?xml version="1.0" encoding="UTF-8"?>
<svg width="33.991mm" height="66.739mm" clip-rule="evenodd" fill-rule="evenodd" image-rendering="optimizeQuality" shape-rendering="geometricPrecision" text-rendering="geometricPrecision" version="1.0" viewBox="0 0 639 1255" xmlns="http://www.w3.org/2000/svg">
 <defs>
  <style type="text/css">.str0 {stroke:#FEFEFE;stroke-width:18.7998;stroke-dasharray:18.799798 18.799798} .fil3 {fill:none} .fil0 {fill:#2B2A29} .fil2 {fill:#9D9E9E} .fil4 {fill:#D54C51} .fil1 {fill:#E8595E}</style>
  <mask id="d">
   <linearGradient id="c" x1="620.58" x2="637.6" y1="-.02068" y2="1226.4" gradientUnits="userSpaceOnUse">
    <stop stop-color="#fff" offset="0"/>
    <stop stop-color="#fff" stop-opacity="0" offset="1"/>
   </linearGradient>
   <rect x="619" width="19.977" height="1226.5" fill="url(#c)"/>
  </mask>
  <mask id="b">
   <linearGradient id="a" x1="292.71" x2="34.011" y1="991.77" y2="1246.3" gradientUnits="userSpaceOnUse">
    <stop stop-color="#fff" offset="0"/>
    <stop stop-color="#fff" stop-opacity="0" offset="1"/>
   </linearGradient>
   <rect x="1" y="983" width="325" height="271" fill="url(#a)"/>
  </mask>
 </defs>
 <path class="fil0" d="m619 0l20 1226c0 1-8-20-20-51v-1175z" mask="url(#d)"/>
 <path class="fil1" d="m0 7h619v1216l-309-240-310 240v-1216z"/>
 <path class="fil2" d="m326 996l-307 259-18-33 309-239 16 13z" mask="url(#b)"/>
 <path class="fil3 str0" d="m50 1134c-1-364-1-728-1-1092h540c-2 10-4 20-5 29-1 10-1 18-1 195v866c-86-69-172-139-259-209-91 70-183 141-274 211z"/>
 <rect class="fil4" y="7" width="620.34" height="95.618"/>
</svg>
